<svg xmlns="http://www.w3.org/2000/svg" viewBox="0 0 512 512">
  <defs>
    <linearGradient id="grad6b" x1="0%" y1="0%" x2="100%" y2="100%">
      <stop offset="0%" style="stop-color:#667eea"/>
      <stop offset="100%" style="stop-color:#764ba2"/>
    </linearGradient>
  </defs>
  <rect width="512" height="512" rx="80" fill="#1a1a2e"/>
  <!-- Abstract wheel shape -->
  <g transform="translate(256,256)">
    <!-- Outer segments -->
    <path d="M0,-160 A160,160 0 0,1 138.6,-80 L69.3,-40 A80,80 0 0,0 0,-80 Z" fill="url(#grad6b)" opacity="0.9"/>
    <path d="M138.6,-80 A160,160 0 0,1 138.6,80 L69.3,40 A80,80 0 0,0 69.3,-40 Z" fill="url(#grad6b)" opacity="0.7"/>
    <path d="M138.6,80 A160,160 0 0,1 0,160 L0,80 A80,80 0 0,0 69.3,40 Z" fill="url(#grad6b)" opacity="0.9"/>
    <path d="M0,160 A160,160 0 0,1 -138.6,80 L-69.3,40 A80,80 0 0,0 0,80 Z" fill="url(#grad6b)" opacity="0.7"/>
    <path d="M-138.6,80 A160,160 0 0,1 -138.6,-80 L-69.3,-40 A80,80 0 0,0 -69.3,40 Z" fill="url(#grad6b)" opacity="0.9"/>
    <path d="M-138.6,-80 A160,160 0 0,1 0,-160 L0,-80 A80,80 0 0,0 -69.3,-40 Z" fill="url(#grad6b)" opacity="0.7"/>
    <!-- Center dot -->
    <circle cx="0" cy="0" r="35" fill="#1a1a2e"/>
    <circle cx="0" cy="0" r="18" fill="url(#grad6b)"/>
  </g>
</svg>
